<svg id="visual" viewBox="0 0 2000 200" width="2000" height="200" xmlns="http://www.w3.org/2000/svg" xmlns:xlink="http://www.w3.org/1999/xlink" version="1.1"><path d="M0 84L47.7 82C95.3 80 190.7 76 285.8 69.8C381 63.7 476 55.3 571.2 51.2C666.3 47 761.7 47 857 53.7C952.3 60.3 1047.7 73.7 1143 79.8C1238.3 86 1333.7 85 1428.8 81.7C1524 78.3 1619 72.7 1714.2 70C1809.3 67.3 1904.7 67.7 1952.3 67.8L2000 68L2000 0L1952.3 0C1904.7 0 1809.3 0 1714.2 0C1619 0 1524 0 1428.8 0C1333.7 0 1238.3 0 1143 0C1047.7 0 952.3 0 857 0C761.7 0 666.3 0 571.2 0C476 0 381 0 285.8 0C190.7 0 95.3 0 47.7 0L0 0Z" fill="#9DBC98" stroke-linecap="round" stroke-linejoin="miter"></path></svg>