<svg id="visual" viewBox="0 0 1200 300" width="1200" height="300" xmlns="http://www.w3.org/2000/svg" xmlns:xlink="http://www.w3.org/1999/xlink" version="1.1"><path d="M0 114L28.5 113.2C57 112.3 114 110.7 171.2 103.8C228.3 97 285.7 85 342.8 81.7C400 78.3 457 83.7 514.2 100.2C571.3 116.7 628.7 144.3 685.8 153.7C743 163 800 154 857.2 137.3C914.3 120.7 971.7 96.3 1028.8 101.3C1086 106.3 1143 140.7 1171.5 157.8L1200 175L1200 0L1171.5 0C1143 0 1086 0 1028.8 0C971.7 0 914.3 0 857.2 0C800 0 743 0 685.8 0C628.7 0 571.3 0 514.2 0C457 0 400 0 342.8 0C285.7 0 228.3 0 171.2 0C114 0 57 0 28.5 0L0 0Z" fill="#9DBC98" stroke-linecap="round" stroke-linejoin="miter"></path></svg>